<svg xmlns="http://www.w3.org/2000/svg" xmlns:xlink="http://www.w3.org/1999/xlink" width="40" zoomAndPan="magnify" viewBox="0 0 30 30.000001" height="40" preserveAspectRatio="xMidYMid meet" version="1.0"><defs><clipPath id="00820af7dd"><path d="M 9.195312 8.710938 L 20.804688 8.710938 L 20.804688 20.324219 L 9.195312 20.324219 Z M 9.195312 8.710938 " clip-rule="nonzero"/></clipPath><clipPath id="8e9b905c14"><path d="M 1.210938 0.726562 L 28.789062 0.726562 L 28.789062 28.304688 L 1.210938 28.304688 Z M 1.210938 0.726562 " clip-rule="nonzero"/></clipPath><clipPath id="1e355629fa"><path d="M 15 0.726562 C 7.382812 0.726562 1.210938 6.898438 1.210938 14.515625 C 1.210938 22.132812 7.382812 28.304688 15 28.304688 C 22.617188 28.304688 28.789062 22.132812 28.789062 14.515625 C 28.789062 6.898438 22.617188 0.726562 15 0.726562 Z M 15 0.726562 " clip-rule="nonzero"/></clipPath><clipPath id="ee59c9746e"><path d="M 4.515625 3 L 25.5625 3 L 25.5625 22.5 L 4.515625 22.5 Z M 4.515625 3 " clip-rule="nonzero"/></clipPath></defs><g clip-path="url(#00820af7dd)"><path fill="#000000" d="M 20.382812 15.425781 C 20.613281 15.425781 20.796875 15.238281 20.796875 15.011719 L 20.796875 14.007812 C 20.796875 13.78125 20.613281 13.59375 20.382812 13.59375 L 19.953125 13.59375 C 19.726562 13.59375 19.484375 13.414062 19.417969 13.199219 L 19.050781 12.308594 C 18.941406 12.105469 18.984375 11.808594 19.148438 11.648438 L 19.453125 11.34375 C 19.613281 11.183594 19.613281 10.921875 19.453125 10.757812 L 18.742188 10.050781 C 18.582031 9.890625 18.320312 9.890625 18.15625 10.050781 L 17.851562 10.355469 C 17.691406 10.515625 17.394531 10.558594 17.195312 10.453125 L 16.304688 10.085938 C 16.085938 10.019531 15.90625 9.777344 15.90625 9.550781 L 15.90625 9.117188 C 15.90625 8.890625 15.722656 8.703125 15.492188 8.703125 L 14.492188 8.703125 C 14.265625 8.703125 14.078125 8.890625 14.078125 9.117188 L 14.078125 9.550781 C 14.078125 9.777344 13.898438 10.019531 13.683594 10.085938 L 12.792969 10.453125 C 12.589844 10.558594 12.292969 10.515625 12.132812 10.355469 L 11.828125 10.050781 C 11.667969 9.890625 11.402344 9.890625 11.242188 10.050781 L 10.535156 10.757812 C 10.375 10.917969 10.375 11.183594 10.535156 11.34375 L 10.839844 11.648438 C 11 11.808594 11.042969 12.105469 10.9375 12.308594 L 10.570312 13.199219 C 10.503906 13.414062 10.261719 13.59375 10.03125 13.59375 L 9.601562 13.59375 C 9.375 13.59375 9.1875 13.78125 9.1875 14.007812 L 9.1875 15.011719 C 9.1875 15.238281 9.375 15.425781 9.601562 15.425781 L 10.03125 15.425781 C 10.261719 15.425781 10.503906 15.601562 10.570312 15.820312 L 10.9375 16.710938 C 11.042969 16.910156 11 17.207031 10.839844 17.371094 L 10.535156 17.675781 C 10.375 17.835938 10.375 18.097656 10.535156 18.257812 L 11.242188 18.96875 C 11.402344 19.128906 11.667969 19.128906 11.828125 18.96875 L 12.132812 18.664062 C 12.292969 18.503906 12.589844 18.457031 12.792969 18.566406 L 13.683594 18.933594 C 13.898438 19 14.078125 19.242188 14.078125 19.46875 L 14.078125 19.898438 C 14.078125 20.128906 14.265625 20.3125 14.492188 20.3125 L 15.492188 20.3125 C 15.722656 20.3125 15.910156 20.128906 15.910156 19.898438 L 15.910156 19.46875 C 15.910156 19.242188 16.085938 19 16.304688 18.933594 L 17.195312 18.566406 C 17.394531 18.457031 17.691406 18.503906 17.851562 18.664062 L 18.15625 18.96875 C 18.320312 19.128906 18.582031 19.128906 18.742188 18.96875 L 19.453125 18.257812 C 19.613281 18.097656 19.613281 17.835938 19.453125 17.671875 L 19.148438 17.371094 C 18.984375 17.207031 18.941406 16.910156 19.050781 16.710938 L 19.417969 15.820312 C 19.484375 15.601562 19.726562 15.425781 19.953125 15.425781 Z M 14.992188 16.898438 C 13.675781 16.898438 12.605469 15.828125 12.605469 14.507812 C 12.605469 13.191406 13.675781 12.121094 14.992188 12.121094 C 16.3125 12.121094 17.382812 13.191406 17.382812 14.507812 C 17.382812 15.828125 16.3125 16.898438 14.992188 16.898438 Z M 14.992188 16.898438 " fill-opacity="1" fill-rule="nonzero"/></g><g clip-path="url(#8e9b905c14)"><g clip-path="url(#1e355629fa)"><path fill="#ffffff" d="M 1.210938 0.726562 L 28.789062 0.726562 L 28.789062 28.304688 L 1.210938 28.304688 Z M 1.210938 0.726562 " fill-opacity="1" fill-rule="nonzero"/></g></g><g clip-path="url(#ee59c9746e)"><path fill="#000000" d="M 24.035156 13.148438 L 23.207031 13.148438 L 23.207031 21.640625 C 23.195312 21.878906 23.097656 22.082031 22.917969 22.242188 C 22.738281 22.402344 22.527344 22.476562 22.285156 22.464844 L 17.394531 22.464844 L 17.394531 16.675781 C 17.394531 16.507812 17.335938 16.367188 17.21875 16.246094 C 17.101562 16.128906 16.957031 16.070312 16.792969 16.070312 L 13.246094 16.070312 C 13.078125 16.070312 12.933594 16.128906 12.816406 16.246094 C 12.699219 16.367188 12.640625 16.507812 12.640625 16.675781 L 12.640625 22.464844 L 7.75 22.464844 C 7.511719 22.476562 7.300781 22.402344 7.121094 22.242188 C 6.941406 22.082031 6.84375 21.882812 6.832031 21.644531 L 6.832031 13.148438 L 6 13.148438 C 5.078125 13.148438 4.578125 12.28125 5.183594 11.726562 L 14.28125 3.3125 C 14.515625 3.109375 14.792969 3.011719 15.101562 3.011719 C 15.414062 3.011719 15.683594 3.113281 15.921875 3.316406 C 18.898438 6.121094 21.878906 8.921875 24.859375 11.726562 C 25.453125 12.289062 24.953125 13.148438 24.035156 13.148438 Z M 24.035156 13.148438 " fill-opacity="1" fill-rule="nonzero"/></g></svg>