<svg xmlns="http://www.w3.org/2000/svg" xmlns:xlink="http://www.w3.org/1999/xlink" width="40" zoomAndPan="magnify" viewBox="0 0 30 30.000001" height="40" preserveAspectRatio="xMidYMid meet" version="1.0"><defs><clipPath id="c4798619e8"><path d="M 9.195312 8.710938 L 20.804688 8.710938 L 20.804688 20.324219 L 9.195312 20.324219 Z M 9.195312 8.710938 " clip-rule="nonzero"/></clipPath><clipPath id="7aa365f586"><path d="M 1.210938 0.726562 L 28.789062 0.726562 L 28.789062 28.304688 L 1.210938 28.304688 Z M 1.210938 0.726562 " clip-rule="nonzero"/></clipPath><clipPath id="53ba55b78b"><path d="M 15 0.726562 C 7.382812 0.726562 1.210938 6.898438 1.210938 14.515625 C 1.210938 22.132812 7.382812 28.304688 15 28.304688 C 22.617188 28.304688 28.789062 22.132812 28.789062 14.515625 C 28.789062 6.898438 22.617188 0.726562 15 0.726562 Z M 15 0.726562 " clip-rule="nonzero"/></clipPath><clipPath id="0572647106"><path d="M 4.082031 4.144531 L 25.855469 4.144531 L 25.855469 25.191406 L 4.082031 25.191406 Z M 4.082031 4.144531 " clip-rule="nonzero"/></clipPath></defs><g clip-path="url(#c4798619e8)"><path fill="#000000" d="M 20.382812 15.425781 C 20.613281 15.425781 20.796875 15.238281 20.796875 15.011719 L 20.796875 14.007812 C 20.796875 13.78125 20.613281 13.59375 20.382812 13.59375 L 19.953125 13.59375 C 19.726562 13.59375 19.484375 13.414062 19.417969 13.199219 L 19.050781 12.308594 C 18.941406 12.105469 18.984375 11.808594 19.148438 11.648438 L 19.453125 11.34375 C 19.613281 11.183594 19.613281 10.921875 19.453125 10.757812 L 18.742188 10.050781 C 18.582031 9.890625 18.320312 9.890625 18.15625 10.050781 L 17.851562 10.355469 C 17.691406 10.515625 17.394531 10.558594 17.195312 10.453125 L 16.304688 10.085938 C 16.085938 10.019531 15.90625 9.777344 15.90625 9.550781 L 15.90625 9.117188 C 15.90625 8.890625 15.722656 8.703125 15.492188 8.703125 L 14.492188 8.703125 C 14.265625 8.703125 14.078125 8.890625 14.078125 9.117188 L 14.078125 9.550781 C 14.078125 9.777344 13.898438 10.019531 13.683594 10.085938 L 12.792969 10.453125 C 12.589844 10.558594 12.292969 10.515625 12.132812 10.355469 L 11.828125 10.050781 C 11.667969 9.890625 11.402344 9.890625 11.242188 10.050781 L 10.535156 10.757812 C 10.375 10.917969 10.375 11.183594 10.535156 11.34375 L 10.839844 11.648438 C 11 11.808594 11.042969 12.105469 10.9375 12.308594 L 10.570312 13.199219 C 10.503906 13.414062 10.261719 13.59375 10.03125 13.59375 L 9.601562 13.59375 C 9.375 13.59375 9.1875 13.78125 9.1875 14.007812 L 9.1875 15.011719 C 9.1875 15.238281 9.375 15.425781 9.601562 15.425781 L 10.03125 15.425781 C 10.261719 15.425781 10.503906 15.601562 10.570312 15.820312 L 10.9375 16.710938 C 11.042969 16.910156 11 17.207031 10.839844 17.371094 L 10.535156 17.675781 C 10.375 17.835938 10.375 18.097656 10.535156 18.257812 L 11.242188 18.96875 C 11.402344 19.128906 11.667969 19.128906 11.828125 18.96875 L 12.132812 18.664062 C 12.292969 18.503906 12.589844 18.457031 12.792969 18.566406 L 13.683594 18.933594 C 13.898438 19 14.078125 19.242188 14.078125 19.46875 L 14.078125 19.898438 C 14.078125 20.128906 14.265625 20.3125 14.492188 20.3125 L 15.492188 20.3125 C 15.722656 20.3125 15.910156 20.128906 15.910156 19.898438 L 15.910156 19.46875 C 15.910156 19.242188 16.085938 19 16.304688 18.933594 L 17.195312 18.566406 C 17.394531 18.457031 17.691406 18.503906 17.851562 18.664062 L 18.15625 18.96875 C 18.320312 19.128906 18.582031 19.128906 18.742188 18.96875 L 19.453125 18.257812 C 19.613281 18.097656 19.613281 17.835938 19.453125 17.671875 L 19.148438 17.371094 C 18.984375 17.207031 18.941406 16.910156 19.050781 16.710938 L 19.417969 15.820312 C 19.484375 15.601562 19.726562 15.425781 19.953125 15.425781 Z M 14.992188 16.898438 C 13.675781 16.898438 12.605469 15.828125 12.605469 14.507812 C 12.605469 13.191406 13.675781 12.121094 14.992188 12.121094 C 16.3125 12.121094 17.382812 13.191406 17.382812 14.507812 C 17.382812 15.828125 16.3125 16.898438 14.992188 16.898438 Z M 14.992188 16.898438 " fill-opacity="1" fill-rule="nonzero"/></g><g clip-path="url(#7aa365f586)"><g clip-path="url(#53ba55b78b)"><path fill="#ffffff" d="M 1.210938 0.726562 L 28.789062 0.726562 L 28.789062 28.304688 L 1.210938 28.304688 Z M 1.210938 0.726562 " fill-opacity="1" fill-rule="nonzero"/></g></g><g clip-path="url(#0572647106)"><path fill="#000000" d="M 14.96875 4.148438 C 14.789062 4.148438 14.644531 4.296875 14.644531 4.476562 L 14.644531 7.898438 C 14.644531 8.082031 14.789062 8.226562 14.96875 8.226562 C 15.148438 8.226562 15.289062 8.082031 15.289062 7.898438 L 15.289062 4.476562 C 15.289062 4.292969 15.148438 4.148438 14.96875 4.148438 Z M 9.578125 6.324219 C 9.527344 6.324219 9.476562 6.339844 9.429688 6.367188 C 9.273438 6.457031 9.214844 6.65625 9.304688 6.8125 C 9.304688 6.8125 9.304688 6.816406 9.308594 6.816406 L 10.621094 9.140625 C 10.675781 9.246094 10.785156 9.308594 10.898438 9.308594 C 11.078125 9.308594 11.21875 9.164062 11.21875 8.980469 C 11.21875 8.921875 11.207031 8.867188 11.179688 8.816406 L 9.863281 6.492188 C 9.804688 6.382812 9.691406 6.324219 9.578125 6.324219 Z M 20.4375 6.332031 C 20.324219 6.332031 20.210938 6.390625 20.148438 6.5 L 18.835938 8.820312 C 18.75 8.976562 18.800781 9.175781 18.949219 9.269531 C 19.101562 9.359375 19.300781 9.308594 19.390625 9.152344 L 19.390625 9.148438 L 20.710938 6.820312 C 20.796875 6.667969 20.746094 6.464844 20.589844 6.375 C 20.542969 6.347656 20.488281 6.335938 20.4375 6.332031 Z M 14.964844 8.878906 C 13.679688 8.878906 12.398438 9.375 11.417969 10.367188 C 10.464844 11.316406 9.929688 12.613281 9.933594 13.96875 C 9.933594 15.117188 10.5 16.136719 11 17.027344 C 11.238281 17.453125 11.457031 17.855469 11.574219 18.191406 C 11.78125 18.816406 11.933594 19.464844 12.027344 20.117188 C 12.042969 21.027344 12.769531 21.800781 13.632812 21.800781 L 16.300781 21.800781 C 17.160156 21.800781 17.890625 21.027344 17.902344 20.117188 C 18 19.464844 18.152344 18.824219 18.359375 18.195312 C 18.472656 17.855469 18.695312 17.457031 18.929688 17.039062 C 19.429688 16.136719 20 15.113281 20 13.957031 C 20 12.605469 19.464844 11.308594 18.511719 10.363281 C 17.527344 9.371094 16.246094 8.878906 14.964844 8.878906 Z M 5.746094 10.34375 C 5.632812 10.339844 5.519531 10.398438 5.453125 10.503906 C 5.363281 10.65625 5.414062 10.859375 5.566406 10.953125 L 5.570312 10.957031 L 7.84375 12.296875 C 7.996094 12.386719 8.191406 12.335938 8.285156 12.179688 C 8.375 12.027344 8.320312 11.824219 8.167969 11.734375 L 5.894531 10.390625 C 5.847656 10.363281 5.796875 10.347656 5.746094 10.34375 Z M 24.316406 10.347656 C 24.265625 10.347656 24.210938 10.363281 24.164062 10.390625 L 21.890625 11.734375 C 21.738281 11.820312 21.683594 12.023438 21.769531 12.179688 C 21.832031 12.28125 21.9375 12.339844 22.050781 12.339844 C 22.105469 12.339844 22.160156 12.324219 22.210938 12.296875 L 24.484375 10.957031 C 24.636719 10.863281 24.6875 10.664062 24.601562 10.507812 C 24.542969 10.402344 24.429688 10.34375 24.316406 10.347656 Z M 4.402344 15.863281 C 4.222656 15.863281 4.082031 16.007812 4.082031 16.191406 C 4.082031 16.375 4.222656 16.519531 4.402344 16.519531 L 7.753906 16.519531 C 7.933594 16.519531 8.078125 16.375 8.078125 16.191406 C 8.078125 16.007812 7.933594 15.863281 7.753906 15.863281 Z M 22.179688 15.863281 C 22 15.863281 21.859375 16.007812 21.859375 16.191406 C 21.859375 16.375 22 16.519531 22.179688 16.519531 L 25.535156 16.519531 C 25.710938 16.519531 25.855469 16.375 25.855469 16.191406 C 25.855469 16.007812 25.710938 15.863281 25.535156 15.863281 Z M 12.808594 22.265625 C 12.628906 22.265625 12.488281 22.414062 12.488281 22.59375 C 12.488281 22.777344 12.628906 22.921875 12.808594 22.921875 L 17.128906 22.921875 C 17.304688 22.921875 17.449219 22.777344 17.449219 22.59375 C 17.449219 22.414062 17.304688 22.265625 17.128906 22.265625 Z M 13.269531 23.390625 C 13.089844 23.390625 12.945312 23.535156 12.945312 23.714844 C 12.945312 23.898438 13.089844 24.042969 13.269531 24.042969 L 16.667969 24.042969 C 16.847656 24.042969 16.988281 23.898438 16.988281 23.714844 C 16.988281 23.535156 16.847656 23.390625 16.667969 23.390625 Z M 13.726562 24.511719 C 13.550781 24.511719 13.40625 24.65625 13.40625 24.835938 C 13.40625 25.019531 13.550781 25.164062 13.726562 25.164062 L 16.207031 25.164062 C 16.386719 25.164062 16.53125 25.019531 16.53125 24.835938 C 16.53125 24.65625 16.386719 24.511719 16.207031 24.511719 Z M 13.726562 24.511719 " fill-opacity="1" fill-rule="nonzero"/></g></svg>