<svg xmlns="http://www.w3.org/2000/svg" xmlns:xlink="http://www.w3.org/1999/xlink" width="40" zoomAndPan="magnify" viewBox="0 0 30 30.000001" height="40" preserveAspectRatio="xMidYMid meet" version="1.0"><defs><clipPath id="3f7ab2666d"><path d="M 9.195312 8.710938 L 20.804688 8.710938 L 20.804688 20.324219 L 9.195312 20.324219 Z M 9.195312 8.710938 " clip-rule="nonzero"/></clipPath><clipPath id="09fda840c1"><path d="M 1.210938 0.726562 L 28.789062 0.726562 L 28.789062 28.304688 L 1.210938 28.304688 Z M 1.210938 0.726562 " clip-rule="nonzero"/></clipPath><clipPath id="787d49e274"><path d="M 15 0.726562 C 7.382812 0.726562 1.210938 6.898438 1.210938 14.515625 C 1.210938 22.132812 7.382812 28.304688 15 28.304688 C 22.617188 28.304688 28.789062 22.132812 28.789062 14.515625 C 28.789062 6.898438 22.617188 0.726562 15 0.726562 Z M 15 0.726562 " clip-rule="nonzero"/></clipPath><clipPath id="73127a8a95"><path d="M 5.238281 4.753906 L 24.835938 4.753906 L 24.835938 24.351562 L 5.238281 24.351562 Z M 5.238281 4.753906 " clip-rule="nonzero"/></clipPath></defs><g clip-path="url(#3f7ab2666d)"><path fill="#000000" d="M 20.382812 15.425781 C 20.613281 15.425781 20.796875 15.238281 20.796875 15.011719 L 20.796875 14.007812 C 20.796875 13.78125 20.613281 13.59375 20.382812 13.59375 L 19.953125 13.59375 C 19.726562 13.59375 19.484375 13.414062 19.417969 13.199219 L 19.050781 12.308594 C 18.941406 12.105469 18.984375 11.808594 19.148438 11.648438 L 19.453125 11.34375 C 19.613281 11.183594 19.613281 10.921875 19.453125 10.757812 L 18.742188 10.050781 C 18.582031 9.890625 18.320312 9.890625 18.15625 10.050781 L 17.851562 10.355469 C 17.691406 10.515625 17.394531 10.558594 17.195312 10.453125 L 16.304688 10.085938 C 16.085938 10.019531 15.90625 9.777344 15.90625 9.550781 L 15.90625 9.117188 C 15.90625 8.890625 15.722656 8.703125 15.492188 8.703125 L 14.492188 8.703125 C 14.265625 8.703125 14.078125 8.890625 14.078125 9.117188 L 14.078125 9.550781 C 14.078125 9.777344 13.898438 10.019531 13.683594 10.085938 L 12.792969 10.453125 C 12.589844 10.558594 12.292969 10.515625 12.132812 10.355469 L 11.828125 10.050781 C 11.667969 9.890625 11.402344 9.890625 11.242188 10.050781 L 10.535156 10.757812 C 10.375 10.917969 10.375 11.183594 10.535156 11.34375 L 10.839844 11.648438 C 11 11.808594 11.042969 12.105469 10.9375 12.308594 L 10.570312 13.199219 C 10.503906 13.414062 10.261719 13.59375 10.03125 13.59375 L 9.601562 13.59375 C 9.375 13.59375 9.1875 13.78125 9.1875 14.007812 L 9.1875 15.011719 C 9.1875 15.238281 9.375 15.425781 9.601562 15.425781 L 10.03125 15.425781 C 10.261719 15.425781 10.503906 15.601562 10.570312 15.820312 L 10.9375 16.710938 C 11.042969 16.910156 11 17.207031 10.839844 17.371094 L 10.535156 17.675781 C 10.375 17.835938 10.375 18.097656 10.535156 18.257812 L 11.242188 18.96875 C 11.402344 19.128906 11.667969 19.128906 11.828125 18.96875 L 12.132812 18.664062 C 12.292969 18.503906 12.589844 18.457031 12.792969 18.566406 L 13.683594 18.933594 C 13.898438 19 14.078125 19.242188 14.078125 19.46875 L 14.078125 19.898438 C 14.078125 20.128906 14.265625 20.3125 14.492188 20.3125 L 15.492188 20.3125 C 15.722656 20.3125 15.910156 20.128906 15.910156 19.898438 L 15.910156 19.46875 C 15.910156 19.242188 16.085938 19 16.304688 18.933594 L 17.195312 18.566406 C 17.394531 18.457031 17.691406 18.503906 17.851562 18.664062 L 18.15625 18.96875 C 18.320312 19.128906 18.582031 19.128906 18.742188 18.96875 L 19.453125 18.257812 C 19.613281 18.097656 19.613281 17.835938 19.453125 17.671875 L 19.148438 17.371094 C 18.984375 17.207031 18.941406 16.910156 19.050781 16.710938 L 19.417969 15.820312 C 19.484375 15.601562 19.726562 15.425781 19.953125 15.425781 Z M 14.992188 16.898438 C 13.675781 16.898438 12.605469 15.828125 12.605469 14.507812 C 12.605469 13.191406 13.675781 12.121094 14.992188 12.121094 C 16.3125 12.121094 17.382812 13.191406 17.382812 14.507812 C 17.382812 15.828125 16.3125 16.898438 14.992188 16.898438 Z M 14.992188 16.898438 " fill-opacity="1" fill-rule="nonzero"/></g><g clip-path="url(#09fda840c1)"><g clip-path="url(#787d49e274)"><path fill="#ffffff" d="M 1.210938 0.726562 L 28.789062 0.726562 L 28.789062 28.304688 L 1.210938 28.304688 Z M 1.210938 0.726562 " fill-opacity="1" fill-rule="nonzero"/></g></g><g clip-path="url(#73127a8a95)"><path fill="#000000" d="M 24.121094 16.085938 C 24.503906 16.085938 24.820312 15.769531 24.820312 15.386719 L 24.820312 13.695312 C 24.820312 13.3125 24.503906 12.996094 24.121094 12.996094 L 23.394531 12.996094 C 23.011719 12.996094 22.605469 12.695312 22.492188 12.328125 L 21.871094 10.824219 C 21.691406 10.484375 21.761719 9.988281 22.035156 9.714844 L 22.546875 9.199219 C 22.820312 8.929688 22.820312 8.484375 22.546875 8.210938 L 21.355469 7.015625 C 21.082031 6.746094 20.636719 6.746094 20.363281 7.015625 L 19.851562 7.53125 C 19.578125 7.804688 19.078125 7.875 18.742188 7.695312 L 17.238281 7.074219 C 16.871094 6.960938 16.570312 6.554688 16.570312 6.171875 L 16.570312 5.445312 C 16.570312 5.058594 16.253906 4.746094 15.871094 4.746094 L 14.179688 4.746094 C 13.796875 4.746094 13.480469 5.058594 13.480469 5.445312 L 13.480469 6.171875 C 13.480469 6.554688 13.179688 6.960938 12.8125 7.074219 L 11.308594 7.695312 C 10.96875 7.875 10.46875 7.800781 10.199219 7.53125 L 9.683594 7.015625 C 9.414062 6.746094 8.96875 6.746094 8.695312 7.015625 L 7.5 8.210938 C 7.230469 8.484375 7.230469 8.929688 7.5 9.199219 L 8.015625 9.714844 C 8.285156 9.988281 8.359375 10.484375 8.179688 10.824219 L 7.558594 12.328125 C 7.445312 12.695312 7.039062 12.996094 6.65625 12.996094 L 5.929688 12.996094 C 5.542969 12.996094 5.230469 13.3125 5.230469 13.695312 L 5.230469 15.386719 C 5.230469 15.769531 5.542969 16.085938 5.929688 16.085938 L 6.65625 16.085938 C 7.039062 16.085938 7.445312 16.386719 7.558594 16.753906 L 8.179688 18.257812 C 8.359375 18.59375 8.289062 19.09375 8.015625 19.367188 L 7.5 19.882812 C 7.230469 20.152344 7.230469 20.597656 7.5 20.871094 L 8.695312 22.066406 C 8.96875 22.335938 9.414062 22.335938 9.683594 22.066406 L 10.199219 21.550781 C 10.472656 21.277344 10.96875 21.207031 11.308594 21.386719 L 12.8125 22.007812 C 13.179688 22.121094 13.480469 22.527344 13.480469 22.910156 L 13.480469 23.636719 C 13.480469 24.023438 13.796875 24.335938 14.179688 24.335938 L 15.871094 24.335938 C 16.253906 24.335938 16.570312 24.023438 16.570312 23.636719 L 16.570312 22.910156 C 16.570312 22.527344 16.871094 22.121094 17.238281 22.007812 L 18.742188 21.386719 C 19.078125 21.207031 19.578125 21.277344 19.851562 21.550781 L 20.367188 22.066406 C 20.636719 22.335938 21.082031 22.335938 21.355469 22.066406 L 22.550781 20.871094 C 22.820312 20.597656 22.820312 20.152344 22.550781 19.882812 L 22.035156 19.367188 C 21.761719 19.09375 21.691406 18.59375 21.871094 18.257812 L 22.492188 16.753906 C 22.605469 16.386719 23.011719 16.085938 23.394531 16.085938 Z M 15.023438 18.570312 C 12.800781 18.570312 10.996094 16.765625 10.996094 14.539062 C 10.996094 12.316406 12.800781 10.511719 15.023438 10.511719 C 17.25 10.511719 19.054688 12.316406 19.054688 14.539062 C 19.054688 16.765625 17.25 18.570312 15.023438 18.570312 Z M 15.023438 18.570312 " fill-opacity="1" fill-rule="nonzero"/></g></svg>