<?xml version="1.0" standalone="no"?>
<!DOCTYPE svg PUBLIC "-//W3C//DTD SVG 20010904//EN"
 "http://www.w3.org/TR/2001/REC-SVG-20010904/DTD/svg10.dtd">
<svg version="1.0" xmlns="http://www.w3.org/2000/svg"
 width="1024.000000pt" height="1024.000000pt" viewBox="0 0 1024.000000 1024.000000"
 preserveAspectRatio="xMidYMid meet">
<metadata>
Created by potrace 1.14, written by Peter Selinger 2001-2017
</metadata>
<g transform="translate(0.000000,1024.000000) scale(0.100000,-0.100000)"
fill="#000000" stroke="none">
<path d="M5240 8299 c-22 -4 2 -7 69 -8 57 0 102 1 100 3 -9 7 -136 12 -169 5z"/>
<path d="M5458 8303 c18 -2 45 -2 60 0 15 2 0 4 -33 4 -33 0 -45 -2 -27 -4z"/>
<path d="M4705 8269 c-27 -5 -63 -13 -80 -19 -24 -8 -17 -9 35 -5 163 12 209
18 204 26 -6 11 -91 10 -159 -2z"/>
<path d="M4638 8203 c7 -3 16 -2 19 1 4 3 -2 6 -13 5 -11 0 -14 -3 -6 -6z"/>
<path d="M4280 8170 c-20 -6 -21 -8 -5 -8 11 0 31 4 45 8 20 6 21 8 5 8 -11 0
-31 -4 -45 -8z"/>
<path d="M4815 8160 c-127 -21 -168 -30 -175 -40 -11 -15 -238 -67 -325 -74
-42 -4 -110 -20 -160 -38 -28 -10 -61 -25 -175 -75 -25 -11 -63 -26 -85 -32
-52 -16 -481 -231 -505 -253 -10 -9 -20 -14 -23 -12 -6 6 -54 -22 -78 -45 -9
-9 -31 -29 -50 -45 -19 -16 -68 -60 -110 -98 -42 -37 -79 -68 -82 -68 -11 0
-112 -65 -172 -109 -33 -25 -96 -80 -139 -123 -44 -43 -83 -78 -87 -78 -12 0
-100 -116 -172 -225 -103 -155 -107 -161 -107 -144 0 21 92 168 168 268 69 89
108 131 160 170 17 13 34 32 37 43 6 16 55 58 148 126 56 41 124 107 120 117
-2 6 10 18 26 28 16 9 55 42 86 72 54 54 75 66 75 45 0 -19 38 8 107 77 41 41
91 78 132 99 37 18 57 33 46 33 -37 1 -136 -55 -216 -121 -25 -21 -66 -45 -91
-54 -26 -8 -53 -26 -61 -38 -9 -13 -30 -36 -48 -52 -18 -16 -58 -52 -88 -80
-57 -52 -109 -83 -80 -48 8 10 51 48 96 85 45 38 88 83 97 100 19 39 20 43 4
29 -7 -6 -24 -19 -38 -31 -102 -82 -210 -185 -210 -200 0 -10 -6 -24 -13 -31
-8 -7 -12 -19 -9 -26 2 -7 -2 -10 -11 -6 -10 3 -20 -3 -27 -15 -6 -12 -16 -21
-24 -21 -16 0 -176 -155 -202 -195 -10 -16 -46 -58 -78 -92 -56 -60 -115 -140
-129 -176 -6 -16 -27 -24 -27 -11 0 7 52 82 105 151 22 29 63 82 90 119 53 71
173 197 239 252 30 24 37 35 28 44 -8 8 -17 7 -34 -4 -46 -31 -205 -197 -307
-322 l-34 -41 6 31 c3 16 7 36 9 43 2 8 -3 16 -9 18 -7 3 -13 -2 -13 -11 0 -9
-6 -16 -13 -16 -8 0 -21 -18 -30 -40 -16 -41 -65 -111 -129 -185 -21 -23 -38
-47 -38 -52 0 -6 -7 -16 -15 -23 -8 -7 -15 -19 -15 -27 0 -8 -13 -26 -29 -41
-30 -27 -101 -158 -101 -185 0 -8 -7 -14 -16 -13 -12 1 -22 -16 -35 -54 -26
-75 -47 -118 -63 -127 -7 -4 -21 -30 -31 -58 -10 -27 -22 -54 -27 -59 -4 -6
-8 -18 -8 -27 0 -10 -4 -19 -8 -21 -12 -5 -63 -134 -78 -198 -7 -30 -23 -98
-37 -150 -46 -180 -61 -309 -61 -535 -1 -153 4 -238 16 -315 10 -58 22 -138
28 -177 13 -91 48 -181 156 -397 66 -132 111 -205 200 -325 142 -193 344 -403
474 -492 50 -35 86 -65 80 -67 -38 -13 -371 284 -519 462 -173 209 -357 574
-411 816 -12 52 -25 111 -30 130 -5 19 -16 100 -26 180 -31 272 7 656 87 888
11 31 42 120 68 197 27 77 65 180 85 229 20 48 36 90 34 92 -5 4 -62 -109 -94
-186 -81 -197 -156 -438 -179 -575 -9 -49 -20 -103 -26 -120 -19 -56 -39 -259
-39 -395 0 -212 53 -523 125 -733 50 -146 82 -213 174 -357 119 -187 140 -214
301 -382 175 -182 272 -261 446 -360 42 -24 83 -48 92 -53 115 -72 108 -72
-30 -1 -131 67 -132 67 -313 202 -154 115 -232 190 -320 309 -27 37 -67 91
-88 119 -162 216 -223 333 -313 605 -2 8 -7 12 -9 9 -3 -2 2 -36 10 -74 21
-99 18 -118 -11 -58 -25 53 -54 157 -104 369 -55 233 -60 259 -61 340 l-2 80
-9 -100 c-14 -155 -3 -347 32 -544 37 -207 57 -283 120 -456 87 -237 161 -373
322 -599 216 -304 376 -478 542 -588 39 -26 94 -63 121 -83 28 -19 82 -51 120
-70 39 -19 115 -64 170 -100 108 -71 173 -104 460 -233 50 -23 136 -55 193
-72 56 -17 102 -35 102 -39 0 -12 71 -34 175 -56 44 -9 109 -23 145 -31 78
-17 450 -73 570 -85 321 -32 485 -34 815 -9 226 16 447 54 795 136 140 33 625
196 725 244 44 21 124 59 179 84 86 41 177 89 346 184 l45 25 -39 -34 c-58
-50 -138 -105 -198 -135 -29 -14 -60 -32 -68 -39 -27 -23 -244 -132 -297 -149
-47 -16 -90 -46 -65 -46 56 0 427 170 638 292 453 263 837 640 1157 1138 191
295 356 718 389 995 14 108 14 105 -7 230 -9 55 -19 125 -22 155 -2 30 -9 59
-14 64 -12 13 -12 -57 1 -123 9 -49 -5 -200 -29 -306 l-9 -40 -1 45 c-1 41 8
139 24 267 6 51 -3 40 -24 -27 -11 -35 -11 -35 -6 10 21 195 11 533 -20 690
-17 87 -98 369 -129 450 -49 128 -107 253 -158 339 -88 149 -254 393 -325 478
-80 97 -114 120 -44 30 55 -71 162 -233 213 -322 18 -33 46 -80 61 -105 173
-282 285 -587 332 -900 14 -94 23 -465 12 -476 -2 -2 -7 92 -10 209 l-6 212
-55 215 c-52 204 -71 262 -154 460 -44 106 -186 341 -269 446 -18 23 -33 44
-33 49 0 4 -13 24 -30 45 -16 21 -30 41 -30 45 0 4 -18 26 -39 49 -22 22 -82
87 -135 142 -86 91 -157 148 -344 278 -31 22 -63 46 -70 53 -7 7 -18 13 -23
13 -6 0 -8 4 -5 9 10 16 -154 88 -219 96 -33 4 -73 12 -90 19 -57 24 -95 34
-99 27 -3 -4 47 -24 110 -45 109 -37 129 -48 102 -59 -7 -3 -4 -6 6 -6 20 -1
100 -51 93 -57 -2 -2 -57 17 -123 42 -65 26 -154 60 -196 77 -43 16 -78 33
-78 37 0 5 -24 13 -52 20 -29 7 -98 25 -153 40 -133 38 -252 57 -480 76 -230
19 -712 18 -854 -3 -110 -15 -227 -48 -234 -66 -4 -9 -8 -9 -15 1 -7 11 -30 5
-113 -31 -57 -24 -126 -53 -154 -63 -27 -10 -69 -31 -93 -47 -35 -23 -112 -63
-167 -86 -5 -2 4 8 20 23 37 33 202 120 310 163 44 18 121 53 170 77 50 25
124 55 165 66 41 12 107 30 145 41 39 11 116 26 173 34 98 14 167 34 117 35
-11 0 -51 -7 -90 -15 -82 -18 -85 -18 -85 -6 0 5 14 11 30 15 52 10 33 23 -22
15 -127 -19 -189 -32 -282 -60 -54 -16 -108 -29 -120 -29 -18 0 -19 -2 -6 -11
11 -8 7 -9 -17 -5 -18 3 -35 1 -38 -4 -3 -6 0 -10 7 -11 21 -1 -60 -28 -152
-51 -182 -44 -441 -193 -697 -399 -35 -28 -63 -48 -63 -45 0 10 94 99 167 158
98 80 291 212 349 240 27 13 51 26 54 29 3 4 16 9 30 13 36 10 70 28 70 37 0
8 -44 -5 -95 -27 -148 -65 -315 -151 -376 -193 -238 -165 -356 -260 -523 -421
-215 -207 -228 -221 -306 -325 -41 -55 -100 -127 -131 -161 -31 -33 -72 -86
-92 -117 -20 -31 -56 -81 -79 -110 -24 -29 -65 -87 -93 -129 -27 -43 -57 -80
-65 -83 -18 -7 -82 -105 -108 -166 -11 -24 -29 -87 -40 -140 -25 -114 -39
-152 -51 -144 -31 19 -42 -231 -16 -369 35 -185 48 -241 67 -283 11 -25 21
-43 23 -41 2 2 -3 28 -11 58 -38 147 -66 401 -46 414 7 4 15 -15 22 -51 24
-117 59 -252 71 -274 11 -22 13 -21 24 26 7 28 15 136 19 240 3 105 12 233 21
285 8 52 15 100 15 105 1 6 5 1 10 -11 4 -11 11 -108 15 -215 7 -221 17 -307
45 -387 11 -31 20 -75 20 -99 0 -23 5 -45 11 -48 11 -8 5 55 -13 130 -5 22
-12 130 -15 240 -6 205 4 297 42 410 7 22 23 74 36 115 12 41 25 80 29 85 4 6
11 21 15 35 4 14 25 62 46 108 22 46 39 86 39 90 0 9 110 199 110 191 0 -3
-14 -37 -31 -75 -50 -109 -138 -357 -159 -447 -24 -105 -40 -250 -40 -371 0
-164 24 -121 55 99 21 154 66 326 107 415 20 41 41 93 48 115 22 69 87 197
147 290 64 99 193 287 203 295 4 3 39 49 79 103 40 53 74 97 77 97 2 0 -20
-34 -49 -76 -28 -42 -55 -81 -60 -88 -135 -204 -315 -558 -365 -716 -46 -148
-92 -328 -92 -360 0 -31 18 -24 25 10 4 17 24 60 45 96 21 35 49 98 64 139 15
41 37 94 50 117 14 24 46 86 71 138 98 199 119 236 176 319 32 47 77 114 101
148 23 34 43 61 45 59 9 -9 -142 -329 -203 -431 -23 -38 -53 -92 -66 -120 -34
-68 -90 -234 -84 -248 2 -7 5 -4 5 5 1 9 12 38 25 65 13 26 41 86 61 133 21
47 57 110 79 140 22 30 64 92 92 138 29 45 54 77 56 70 3 -7 28 22 56 64 50
74 186 208 262 258 21 14 66 46 99 72 34 26 61 44 61 40 0 -4 -61 -68 -136
-142 -121 -120 -266 -294 -286 -342 -4 -10 -12 -18 -18 -18 -5 0 -10 -7 -10
-17 0 -15 2 -15 18 0 17 15 21 17 42 17 6 0 10 7 10 15 0 34 469 465 611 560
92 63 94 48 4 -28 -168 -141 -409 -387 -496 -507 -36 -49 -74 -119 -68 -125 3
-2 19 14 35 36 16 23 39 53 52 66 12 13 22 27 22 32 0 14 234 230 302 278 37
27 113 83 168 127 120 92 114 73 -12 -37 -48 -43 -86 -83 -83 -88 10 -16 59
-10 94 12 18 11 52 27 75 36 22 9 51 24 64 34 14 10 50 20 90 24 135 13 221
28 400 71 226 55 376 69 612 57 l165 -8 -235 -6 c-283 -8 -324 -14 -635 -89
-66 -16 -142 -32 -168 -35 -47 -6 -129 -45 -266 -124 -70 -41 -88 -57 -77 -68
6 -6 88 25 193 74 57 26 80 33 107 28 29 -6 35 -4 41 14 3 12 13 21 21 21 8 0
12 -4 9 -10 -10 -17 24 -12 145 21 151 41 265 58 430 65 198 9 407 -9 581 -50
8 -2 42 -17 75 -34 32 -16 86 -41 119 -55 59 -26 82 -47 51 -47 -9 0 -16 5
-16 11 0 6 -9 8 -21 4 -12 -4 -27 -1 -37 8 -9 8 -66 22 -127 32 -140 23 -765
29 -786 8 -11 -11 -10 -13 4 -13 9 0 17 -5 17 -11 0 -6 8 -9 18 -7 9 3 60 -1
112 -9 52 -7 140 -17 195 -23 93 -9 163 -19 375 -54 90 -15 323 -98 450 -160
81 -40 231 -143 238 -164 5 -17 -21 -6 -86 35 -89 57 -231 124 -362 170 -170
61 -178 63 -230 62 l-45 0 75 -24 c41 -12 128 -48 194 -79 65 -31 122 -56 127
-56 5 0 35 -17 67 -38 31 -21 73 -45 92 -52 106 -40 363 -283 476 -450 53 -77
101 -189 147 -340 42 -136 45 -155 51 -300 6 -135 3 -178 -18 -330 -28 -192
-50 -289 -91 -395 -15 -38 -38 -99 -51 -134 -34 -90 -104 -215 -172 -308 -144
-194 -175 -232 -239 -298 -169 -174 -507 -448 -722 -586 -98 -63 -271 -159
-288 -159 -3 0 25 22 63 48 70 49 229 167 364 272 41 32 111 92 155 133 44 41
102 95 129 119 26 25 43 47 37 49 -8 3 0 30 22 79 25 55 51 91 95 134 36 35
84 98 120 160 68 114 172 325 197 400 19 57 28 149 14 141 -5 -4 -9 -12 -9
-20 0 -8 -6 -18 -12 -22 -13 -8 -18 -19 -64 -140 -13 -35 -39 -93 -57 -130
-44 -89 -190 -333 -233 -389 -19 -24 -34 -49 -34 -54 0 -6 -5 -10 -11 -10 -6
0 -36 -26 -67 -58 -103 -103 -266 -241 -344 -289 -42 -27 -123 -77 -179 -113
-248 -159 -436 -261 -604 -328 -82 -33 -163 -63 -180 -66 l-30 -7 30 19 c17
10 53 26 80 37 122 45 473 250 570 333 6 5 24 17 40 28 17 10 61 43 99 74 39
30 74 58 79 61 19 13 -4 44 -40 56 -30 9 -43 9 -66 -3 -15 -8 -31 -22 -34 -29
-3 -8 -9 -12 -14 -9 -5 3 -9 1 -9 -4 0 -11 -156 -114 -270 -177 -84 -46 -257
-128 -355 -167 -27 -11 -84 -33 -125 -50 -86 -34 -260 -83 -370 -104 -41 -8
-115 -23 -165 -34 -104 -22 -118 -24 -110 -10 3 5 16 10 28 11 30 1 167 47
142 48 -22 0 -116 -20 -178 -39 -21 -6 -50 -9 -65 -7 -25 4 -25 4 5 6 17 0 35
6 38 11 3 6 16 10 28 11 12 0 17 3 11 5 -11 5 -44 -2 -149 -31 -111 -30 -300
-35 -598 -14 -150 10 -297 25 -327 33 -76 20 -33 19 102 -1 170 -25 705 -25
803 0 146 37 192 50 265 73 41 13 80 24 88 24 19 0 4 -20 -16 -20 -9 -1 -35
-10 -57 -21 l-40 -20 35 6 c19 4 49 11 65 15 17 5 68 16 115 25 47 9 92 18
100 20 8 3 43 11 78 19 60 14 74 21 112 56 9 8 25 20 36 26 38 23 3 27 -41 6
-48 -23 -65 -27 -65 -14 0 8 69 37 114 48 21 5 27 4 22 -5 -4 -7 0 -11 11 -11
24 0 49 17 40 26 -4 4 2 12 12 18 161 93 207 120 209 127 2 5 9 9 15 9 7 0 26
12 42 26 17 14 41 35 54 45 13 11 22 22 19 25 -7 7 -128 -33 -273 -90 -233
-92 -416 -142 -665 -183 -164 -26 -193 -28 -460 -27 -300 0 -364 7 -633 64
-180 38 -435 125 -587 200 -221 109 -350 186 -437 261 -28 24 -73 63 -101 86
-63 53 -223 243 -257 303 -4 8 9 -5 31 -30 160 -187 376 -378 518 -457 121
-68 395 -200 451 -218 22 -7 103 -33 180 -58 291 -94 540 -133 783 -123 171 7
382 32 396 46 7 7 6 10 -2 10 -7 0 -12 5 -12 10 0 6 8 10 18 10 10 0 38 10 63
21 24 12 55 25 69 30 37 11 -124 11 -271 -1 -68 -5 -140 -6 -159 -2 l-35 8 35
8 c34 8 34 9 10 16 -14 4 -74 8 -135 9 -60 1 -128 6 -150 12 -45 13 -43 15 38
24 98 11 69 28 -116 64 -401 80 -768 229 -1082 440 -281 189 -463 399 -620
716 -74 150 -149 366 -164 475 -16 116 -22 345 -13 445 l9 90 2 -70 c2 -137
41 -490 60 -550 29 -93 109 -286 111 -265 0 3 -9 29 -20 58 -11 29 -20 65 -19
80 0 20 7 9 28 -43 45 -113 107 -230 154 -287 24 -29 69 -88 100 -130 101
-136 289 -308 476 -433 86 -59 252 -155 266 -155 16 0 -18 27 -67 53 -170 90
-392 268 -500 403 -124 155 -152 193 -180 248 -16 32 -27 60 -24 63 2 3 32
-33 66 -78 141 -194 380 -403 598 -522 56 -32 104 -57 106 -57 2 0 31 -15 63
-33 33 -19 97 -44 143 -56 46 -12 89 -26 96 -32 8 -7 13 -6 16 2 3 8 13 7 35
-5 18 -9 39 -16 48 -16 8 0 15 -4 15 -10 0 -5 7 -10 15 -10 8 0 15 -5 15 -10
0 -25 168 -54 235 -40 22 4 37 8 33 9 -35 5 -184 54 -230 75 -31 14 -59 26
-62 26 -6 0 -75 31 -186 83 -142 66 -421 258 -520 357 -329 333 -513 761 -513
1195 1 177 15 263 80 479 48 162 115 305 228 491 37 61 83 130 103 154 21 24
64 78 97 120 33 42 76 93 95 113 76 78 239 223 310 276 41 31 109 83 150 117
85 69 150 111 230 150 68 33 88 44 137 78 22 15 91 48 154 73 63 25 173 74
244 109 170 82 192 91 300 119 93 25 237 71 267 86 9 5 54 23 100 40 45 17
103 40 128 50 25 11 71 28 103 38 32 10 57 22 55 27 -4 14 -145 6 -198 -12
-27 -9 -61 -12 -85 -9 -30 5 -36 4 -25 -5 11 -8 5 -9 -28 -6 -23 3 -40 2 -37
-3 2 -4 -29 -10 -70 -13 -67 -6 -112 -15 -295 -62 -30 -7 -75 -16 -100 -20
-52 -8 -165 -45 -260 -84 -36 -16 -99 -38 -140 -50 -79 -24 -228 -80 -245 -91
-5 -4 -55 -26 -110 -50 -172 -72 -289 -141 -475 -279 -171 -126 -378 -317
-485 -446 -44 -53 -106 -126 -137 -161 -31 -35 -80 -100 -110 -144 -52 -79
-71 -97 -61 -62 7 29 132 204 208 292 95 111 287 305 359 366 33 27 76 63 95
80 49 42 181 141 264 197 156 107 447 240 732 337 77 26 180 62 228 80 49 17
119 37 155 45 37 8 117 27 177 43 61 17 151 37 200 46 50 9 117 23 150 30 l60
14 -80 0 c-44 0 -129 -8 -190 -18z m-520 -140 c-3 -5 -14 -10 -24 -10 -9 0
-22 -5 -27 -10 -10 -10 -74 -32 -74 -25 0 2 19 13 43 24 66 31 92 38 82 21z
m-177 -70 c-14 -4 -31 -11 -37 -15 -6 -3 -11 -2 -11 4 0 10 23 19 55 19 14 0
12 -2 -7 -8z m-61 -26 c-3 -3 -12 -4 -19 -1 -8 3 -5 6 6 6 11 1 17 -2 13 -5z
m228 -147 c-11 -8 -29 -17 -40 -20 -56 -16 -188 -68 -248 -97 -38 -17 -70 -30
-73 -28 -9 10 185 99 291 133 83 28 96 30 70 12z m2225 -17 c128 -17 386 -63
507 -88 24 -5 48 -14 55 -19 7 -6 36 -18 63 -28 28 -10 57 -24 65 -31 8 -6 49
-23 90 -37 133 -46 160 -57 217 -87 57 -31 76 -33 53 -5 -31 37 17 9 126 -72
64 -49 132 -99 150 -112 19 -13 34 -28 34 -34 0 -5 -15 2 -34 17 -19 14 -37
26 -41 26 -10 0 -129 78 -148 97 -10 10 -26 18 -35 18 -9 0 -60 21 -112 47
-98 49 -152 70 -232 93 -26 7 -60 22 -77 34 -16 12 -34 21 -39 21 -5 0 -29 9
-53 20 -24 11 -51 20 -59 20 -15 0 84 -49 150 -74 8 -4 29 -14 45 -24 17 -11
48 -25 70 -32 128 -40 458 -261 622 -414 50 -47 49 -62 -1 -20 -85 71 -212
164 -371 270 -92 61 -430 227 -560 275 l-50 18 35 2 35 2 -40 7 c-22 4 -89 15
-150 24 -60 9 -121 20 -135 25 -39 14 -189 32 -292 36 -51 1 -165 6 -253 10
-258 12 -527 -24 -725 -95 -263 -95 -307 -113 -372 -155 -38 -25 -101 -62
-141 -81 -88 -45 -217 -127 -242 -154 -10 -11 -22 -20 -27 -20 -40 0 74 91
259 207 148 93 292 165 413 208 41 15 127 45 190 67 165 59 250 68 585 63 209
-3 317 -9 425 -25z m-2619 -154 c-7 -8 -29 -23 -49 -34 -121 -63 -178 -96
-223 -128 -28 -19 -53 -33 -56 -31 -10 11 82 75 198 138 128 70 150 79 130 55z
m2545 -78 c5 -8 -52 -10 -232 -5 -238 6 -437 -6 -591 -34 -34 -6 -68 -9 -75
-7 -12 4 132 30 262 47 105 14 627 13 636 -1z m97 -15 c-13 -2 -33 -2 -45 0
-13 2 -3 4 22 4 25 0 35 -2 23 -4z m-1800 -47 c-15 -13 -30 -23 -32 -20 -5 4
41 43 52 44 4 0 -5 -11 -20 -24z m1797 -45 c42 -11 -155 -3 -240 10 -39 6 -18
7 75 4 72 -3 146 -9 165 -14z m-727 -8 c-7 -2 -21 -2 -30 0 -10 3 -4 5 12 5
17 0 24 -2 18 -5z m1150 0 c-7 -2 -19 -2 -25 0 -7 3 -2 5 12 5 14 0 19 -2 13
-5z m-1263 -13 c0 -5 -12 -10 -27 -9 l-28 1 25 8 c14 4 26 8 28 9 1 1 2 -3 2
-9z m955 -6 l60 -14 -54 6 c-30 3 -62 9 -70 14 -22 13 -7 11 64 -6z m375 -4
c18 -12 2 -12 -25 0 -13 6 -15 9 -5 9 8 0 22 -4 30 -9z m-100 -59 c44 -20 44
-21 10 -15 -19 4 -53 12 -75 20 -22 7 -59 16 -83 20 -23 4 -44 10 -47 14 -8
14 150 -18 195 -39z m-1401 25 c-2 -2 -51 -20 -109 -39 -105 -36 -191 -71
-264 -108 -21 -11 -40 -18 -43 -16 -7 7 236 125 302 146 52 17 126 28 114 17z
m-2064 -36 c-3 -5 -11 -10 -16 -10 -6 0 -7 5 -4 10 3 6 11 10 16 10 6 0 7 -4
4 -10z m1120 -30 c-3 -5 -12 -10 -18 -10 -7 0 -6 4 3 10 19 12 23 12 15 0z
m-75 -66 c-8 -8 -23 -20 -34 -25 -15 -7 -13 -3 7 15 31 29 47 35 27 10z m2915
-32 c-3 -3 -11 0 -18 7 -9 10 -8 11 6 5 10 -3 15 -9 12 -12z m-2986 -24 c-2
-2 -19 -16 -37 -32 -17 -17 -32 -27 -32 -23 0 9 53 57 64 57 5 0 7 -1 5 -2z
m3061 -18 c0 -5 6 -10 14 -10 8 0 17 -4 20 -9 9 -14 -32 -1 -45 15 -8 10 -8
14 0 14 6 0 11 -4 11 -10z m-2971 -47 c-13 -17 -90 -94 -206 -206 -29 -28 -53
-46 -53 -41 0 11 255 264 266 264 3 0 0 -8 -7 -17z m3067 -14 c19 -11 34 -25
34 -31 0 -9 -25 5 -40 23 -3 3 -14 11 -25 17 -11 6 -16 12 -11 12 5 0 24 -9
42 -21z m-1128 -16 c-10 -2 -26 -2 -35 0 -10 3 -2 5 17 5 19 0 27 -2 18 -5z
m49 -9 c-3 -3 -12 -4 -19 -1 -8 3 -5 6 6 6 11 1 17 -2 13 -5z m1188 -62 c-3
-3 -11 0 -18 7 -9 10 -8 11 6 5 10 -3 15 -9 12 -12z m-5351 -104 c-53 -78 -74
-102 -82 -93 -7 7 31 68 59 96 16 16 29 31 29 35 0 14 44 67 48 56 2 -6 -22
-48 -54 -94z m5439 33 l22 -25 -30 22 c-16 12 -41 31 -55 43 l-25 21 33 -19
c18 -10 43 -29 55 -42z m371 -67 c3 -8 2 -12 -4 -9 -6 3 -10 10 -10 16 0 14 7
11 14 -7z m-269 -34 c10 -11 16 -20 13 -20 -3 0 -13 9 -23 20 -10 11 -16 20
-13 20 3 0 13 -9 23 -20z m333 -55 c-3 -3 -9 2 -12 12 -6 14 -5 15 5 6 7 -7
10 -15 7 -18z m-5984 -32 c-15 -27 -34 -57 -42 -68 -13 -19 -14 -19 -7 5 4 14
18 39 31 57 13 17 24 36 24 42 0 6 5 11 10 11 6 0 -1 -21 -16 -47z m5730 1 c9
-24 2 -26 -12 -4 -7 11 -8 20 -3 20 5 0 12 -7 15 -16z m-5690 -41 c-13 -26
-20 -33 -22 -21 -3 16 29 70 36 63 2 -2 -4 -21 -14 -42z m5766 -72 c-1 -11
-50 50 -50 62 0 6 11 -4 25 -23 14 -19 25 -36 25 -39z m-3923 17 c-3 -8 -6 -5
-6 6 -1 11 2 17 5 13 3 -3 4 -12 1 -19z m-1976 -54 c-13 -23 -21 -31 -21 -21
0 24 32 85 37 70 2 -6 -5 -28 -16 -49z m5923 10 c3 -8 2 -12 -4 -9 -6 3 -10
10 -10 16 0 14 7 11 14 -7z m-685 -188 c9 -11 9 -16 0 -22 -12 -7 -49 29 -49
47 0 12 32 -4 49 -25z m-172 -93 c50 -53 56 -65 12 -29 -17 14 -36 26 -44 26
-7 0 -25 16 -39 35 l-27 35 28 -11 c15 -5 46 -31 70 -56z m351 -128 c6 -14 8
-25 3 -25 -4 0 -13 11 -19 25 -6 14 -8 25 -3 25 4 0 13 -11 19 -25z m-5361
-402 c-2 -21 -4 -4 -4 37 0 41 2 58 4 38 2 -21 2 -55 0 -75z m880 -65 c-3 -8
-6 -5 -6 6 -1 11 2 17 5 13 3 -3 4 -12 1 -19z m4766 -35 c62 -229 60 -501 -9
-827 -16 -77 -66 -232 -91 -279 -8 -16 -16 -50 -18 -74 -1 -25 -7 -49 -12 -54
-6 -6 -8 3 -6 23 l5 33 -20 -35 c-11 -19 -27 -51 -36 -70 -9 -19 -20 -42 -26
-50 -5 -8 -17 -31 -25 -50 -9 -19 -42 -69 -73 -110 -31 -41 -60 -79 -64 -85
-5 -5 -23 -29 -40 -51 -18 -23 -60 -76 -93 -119 -33 -43 -76 -98 -95 -121 -19
-23 -44 -55 -54 -70 -11 -15 -21 -23 -24 -16 -2 6 21 40 50 76 29 36 66 82 81
103 16 21 72 97 124 168 53 72 125 176 160 232 128 209 238 544 264 803 16
166 3 466 -27 603 -11 52 13 27 29 -30z m148 -433 c-8 -21 -10 -14 -10 35 -1
87 13 128 17 50 2 -34 -2 -72 -7 -85z m476 -17 c-3 -10 -5 -2 -5 17 0 19 2 27
5 18 2 -10 2 -26 0 -35z m320 -105 c-3 -8 -6 -5 -6 6 -1 11 2 17 5 13 3 -3 4
-12 1 -19z m-817 -75 c-6 -43 -15 -87 -20 -98 -4 -11 -13 -54 -20 -95 -15
-100 -70 -262 -130 -382 -51 -101 -172 -311 -212 -365 -149 -204 -485 -559
-607 -642 -34 -24 -64 -41 -66 -39 -2 2 43 41 100 87 99 79 219 201 296 301
18 24 46 58 61 75 16 16 28 34 28 39 0 5 7 16 15 25 43 45 182 242 214 301 13
25 43 74 66 110 69 104 123 210 161 316 54 150 61 174 84 296 31 162 30 161
36 155 3 -3 0 -41 -6 -84z m456 -94 c-36 -150 -70 -259 -126 -409 -66 -179
-89 -228 -90 -194 0 11 4 24 9 30 5 5 19 38 31 74 12 36 28 79 35 95 30 68
144 459 147 506 1 18 2 17 5 -7 2 -17 -3 -60 -11 -95z m339 39 c-5 -29 -10
-47 -13 -40 -5 17 8 106 15 99 3 -3 2 -30 -2 -59z m31 -430 c-13 -36 -15 -39
-16 -16 0 32 21 88 27 71 2 -6 -3 -31 -11 -55z m-639 -325 c-47 -93 -71 -133
-80 -133 -4 0 13 37 39 83 25 45 51 95 57 110 7 15 13 24 15 18 2 -5 -12 -40
-31 -78z m-94 -158 c-3 -9 -8 -14 -10 -11 -3 3 -2 9 2 15 9 16 15 13 8 -4z
m-52 -71 c-11 -15 -21 -24 -21 -20 0 10 34 55 39 51 2 -2 -6 -16 -18 -31z
m-38 -57 c-13 -21 -82 -120 -98 -141 -8 -11 -17 -17 -19 -15 -3 3 15 34 40 69
25 36 51 73 57 83 14 20 32 24 20 4z m-153 -211 c0 -3 -4 -8 -10 -11 -5 -3
-10 -1 -10 4 0 6 5 11 10 11 6 0 10 -2 10 -4z m-39 -43 c-19 -33 -51 -68 -51
-56 0 11 47 73 56 73 3 0 0 -8 -5 -17z m-681 -58 c-7 -8 -17 -15 -22 -15 -6 0
-5 7 2 15 7 8 17 15 22 15 6 0 5 -7 -2 -15z m610 -34 c-5 -11 -15 -23 -21 -27
-6 -3 -3 5 6 20 20 30 30 35 15 7z m-5045 -151 c3 -6 -1 -7 -9 -4 -18 7 -21
14 -7 14 6 0 13 -4 16 -10z m4065 -93 c0 -2 -10 -12 -22 -23 l-23 -19 19 23
c18 21 26 27 26 19z m-1535 -87 c-3 -5 -14 -10 -23 -10 -15 0 -15 2 -2 10 20
13 33 13 25 0z m-2338 -50 c41 -25 240 -91 362 -121 52 -13 89 -25 82 -27 -19
-6 -189 37 -315 81 -114 40 -207 86 -176 87 8 0 30 -9 47 -20z m2129 -15 c-11
-8 -33 -15 -50 -15 -53 0 -7 24 54 28 11 1 10 -3 -4 -13z m-1769 -1 c-3 -3
-12 -4 -19 -1 -8 3 -5 6 6 6 11 1 17 -2 13 -5z m206 -61 c-7 -2 -19 -2 -25 0
-7 3 -2 5 12 5 14 0 19 -2 13 -5z m60 -10 c-7 -2 -21 -2 -30 0 -10 3 -4 5 12
5 17 0 24 -2 18 -5z m1190 -90 c-7 -2 -19 -2 -25 0 -7 3 -2 5 12 5 14 0 19 -2
13 -5z m-200 -30 c-13 -2 -33 -2 -45 0 -13 2 -3 4 22 4 25 0 35 -2 23 -4z
m-125 -10 c-10 -2 -26 -2 -35 0 -10 3 -2 5 17 5 19 0 27 -2 18 -5z m3212 -108
c0 -2 -10 -10 -22 -16 -21 -11 -22 -11 -9 4 13 16 31 23 31 12z m-50 -39 c0
-2 -7 -6 -15 -10 -8 -3 -15 -1 -15 4 0 6 7 10 15 10 8 0 15 -2 15 -4z m-1205
-476 c-11 -5 -29 -9 -40 -9 l-20 0 20 9 c11 5 29 9 40 9 l20 0 -20 -9z"/>
<path d="M4180 8150 c-39 -10 -111 -39 -95 -39 15 -1 157 38 163 44 7 7 -27 4
-68 -5z"/>
<path d="M3910 8110 c-13 -9 -13 -10 0 -10 8 0 22 5 30 10 13 9 13 10 0 10 -8
0 -22 -5 -30 -10z"/>
<path d="M4159 8090 c-81 -25 -211 -81 -183 -80 26 1 131 31 219 63 55 19 111
37 125 40 14 2 5 4 -20 5 -25 0 -88 -13 -141 -28z"/>
<path d="M3850 8038 c-63 -21 -119 -43 -124 -48 -9 -9 35 0 89 18 17 5 55 17
85 26 30 9 66 23 80 31 45 26 -7 15 -130 -27z"/>
<path d="M3885 7988 c-27 -11 -104 -29 -171 -39 -67 -10 -143 -27 -170 -38
-53 -21 -39 -27 29 -12 117 26 264 49 329 50 11 1 15 6 12 16 -4 8 -2 15 3 15
5 0 18 7 29 15 28 21 0 18 -61 -7z"/>
<path d="M6095 8001 c-30 -4 -45 -9 -38 -14 12 -7 173 9 182 19 6 5 -81 2
-144 -5z"/>
<path d="M5360 7940 c-13 -9 -13 -10 0 -9 8 0 24 4 35 9 l20 9 -20 0 c-11 0
-27 -4 -35 -9z"/>
<path d="M5288 7913 c7 -3 16 -2 19 1 4 3 -2 6 -13 5 -11 0 -14 -3 -6 -6z"/>
<path d="M6476 7889 c4 -6 34 -11 174 -29 41 -5 118 -16 170 -25 113 -18 172
-18 80 0 -36 7 -100 20 -143 29 -82 18 -288 36 -281 25z"/>
<path d="M5157 7880 c-48 -15 -121 -54 -109 -58 7 -2 18 0 25 6 7 5 30 15 52
22 22 7 49 19 60 26 22 15 14 16 -28 4z"/>
<path d="M3600 7870 c-106 -15 -112 -28 -11 -25 69 3 98 7 109 19 15 15 14 16
-13 15 -17 -1 -55 -5 -85 -9z"/>
<path d="M5975 7868 c-60 -4 -128 -13 -150 -18 -35 -8 -33 -9 24 -5 35 3 186
5 335 6 155 1 254 4 231 9 -66 12 -323 17 -440 8z"/>
<path d="M4600 7860 c-9 -6 -10 -10 -3 -10 6 0 15 5 18 10 8 12 4 12 -15 0z"/>
<path d="M5215 7840 c-19 -8 -19 -9 3 -9 12 -1 22 4 22 9 0 6 -1 10 -2 9 -2 0
-12 -4 -23 -9z"/>
<path d="M3550 7810 c-52 -18 -53 -19 -20 -19 19 -1 49 8 65 19 36 24 28 24
-45 0z"/>
<path d="M4458 7803 c-10 -2 -18 -9 -18 -14 0 -12 10 -11 40 6 24 14 14 18
-22 8z"/>
<path d="M7038 7793 c6 -2 18 -2 25 0 6 3 1 5 -13 5 -14 0 -19 -2 -12 -5z"/>
<path d="M7215 7721 c76 -35 116 -51 129 -51 8 0 19 -7 26 -15 7 -8 22 -15 34
-14 27 1 -178 99 -207 99 -16 0 -11 -5 18 -19z"/>
<path d="M3230 7690 c-14 -11 -32 -20 -39 -20 -11 0 -12 -3 -4 -11 12 -12 41
-1 63 26 19 23 8 26 -20 5z"/>
<path d="M4288 7695 c-3 -3 -34 -14 -69 -24 -87 -26 -188 -69 -224 -95 -16
-13 -77 -45 -135 -73 -58 -28 -112 -58 -119 -67 -7 -9 -20 -16 -27 -16 -8 0
-14 -4 -14 -10 0 -5 -7 -10 -15 -10 -7 0 -18 -6 -22 -14 -4 -7 -43 -38 -85
-67 -268 -187 -384 -294 -530 -489 -14 -19 -35 -44 -45 -55 -109 -115 -254
-396 -318 -618 -39 -138 -66 -270 -52 -257 23 22 59 88 73 137 20 65 44 109
44 81 0 -9 -4 -20 -10 -23 -5 -3 -10 -17 -10 -30 0 -13 -7 -52 -16 -87 -43
-166 18 -701 103 -900 32 -76 32 -76 42 -60 4 8 5 30 1 50 -4 20 -22 105 -38
187 -37 181 -47 316 -34 450 10 102 52 289 77 348 17 38 20 17 4 -33 -20 -68
-29 -219 -19 -337 9 -118 30 -179 30 -92 1 71 18 25 30 -82 14 -126 37 -263
54 -324 13 -48 27 -82 75 -187 11 -26 21 -51 21 -56 0 -6 7 -12 15 -16 8 -3
15 -12 15 -21 0 -8 5 -15 10 -15 15 0 12 31 -5 64 -26 50 -74 203 -85 272 -26
163 -30 261 -14 385 8 67 17 125 19 129 5 8 31 102 46 165 30 126 106 334 162
446 75 146 149 259 276 419 50 63 97 122 103 131 48 62 391 428 410 437 4 2 4
10 1 18 -3 9 3 21 16 30 11 8 21 19 21 24 0 18 -65 -2 -102 -31 -20 -16 -41
-29 -47 -29 -5 0 -29 -15 -53 -33 -24 -18 -63 -47 -88 -64 -25 -18 -65 -51
-90 -74 -62 -57 -176 -149 -184 -149 -9 0 115 116 209 196 130 110 394 296
463 325 18 8 30 19 28 26 -3 6 28 30 70 54 71 41 94 69 56 69 -10 0 -21 -2
-24 -5z m-830 -695 c-7 -11 -17 -20 -22 -20 -5 0 -1 9 9 20 10 11 20 20 22 20
2 0 -2 -9 -9 -20z"/>
<path d="M3163 7628 c-2 -16 1 -17 13 -8 17 15 17 17 1 23 -8 3 -14 -3 -14
-15z"/>
<path d="M2949 7541 c-13 -11 -21 -22 -18 -25 3 -3 16 5 29 19 28 30 22 33
-11 6z"/>
<path d="M3150 7523 c-21 -22 -22 -25 -4 -15 24 13 51 42 38 42 -5 0 -20 -12
-34 -27z"/>
<path d="M3100 7480 c0 -5 5 -10 10 -10 6 0 10 5 10 10 0 6 -4 10 -10 10 -5 0
-10 -4 -10 -10z"/>
<path d="M2840 7449 c0 -5 5 -7 10 -4 6 3 10 8 10 11 0 2 -4 4 -10 4 -5 0 -10
-5 -10 -11z"/>
<path d="M2352 7125 c-38 -52 -56 -95 -21 -49 13 16 34 41 47 54 12 13 22 27
22 32 0 18 -17 5 -48 -37z"/>
<path d="M2427 7116 c-6 -15 1 -26 15 -26 4 0 8 9 8 20 0 23 -15 27 -23 6z"/>
<path d="M6108 6733 c7 -3 16 -2 19 1 4 3 -2 6 -13 5 -11 0 -14 -3 -6 -6z"/>
<path d="M6168 6723 c12 -2 32 -2 45 0 12 2 2 4 -23 4 -25 0 -35 -2 -22 -4z"/>
<path d="M2010 6676 c-35 -52 -64 -115 -56 -124 8 -7 6 -10 55 81 48 89 49
111 1 43z"/>
<path d="M5964 6638 c-3 -4 10 -8 30 -8 70 0 451 -71 459 -86 4 -8 17 -14 28
-14 11 0 38 -12 60 -26 22 -14 48 -28 57 -32 31 -13 227 -126 240 -139 7 -7
43 -30 80 -52 69 -40 149 -105 239 -195 46 -45 117 -112 176 -164 11 -10 32
-42 47 -72 63 -122 82 -116 25 7 -52 111 -117 191 -270 331 -82 76 -163 136
-255 190 -72 42 -217 112 -270 130 -30 11 -95 34 -145 52 -126 45 -487 102
-501 78z"/>
<path d="M6238 6473 c6 -2 18 -2 25 0 6 3 1 5 -13 5 -14 0 -19 -2 -12 -5z"/>
<path d="M6354 6434 c16 -9 76 -34 134 -55 58 -22 119 -50 136 -63 17 -13 67
-42 111 -64 66 -33 101 -61 198 -159 65 -65 128 -127 140 -139 34 -32 91 -95
129 -146 19 -25 45 -56 57 -69 11 -12 21 -29 21 -36 0 -7 5 -13 10 -13 6 0 10
-6 10 -13 0 -13 59 -158 68 -167 18 -18 -14 81 -51 157 -105 213 -219 352
-419 512 -67 54 -272 171 -299 171 -10 0 -91 33 -121 50 -23 13 -130 50 -143
50 -5 -1 3 -8 19 -16z"/>
<path d="M6390 6290 c8 -5 22 -9 30 -9 10 0 8 3 -5 9 -27 12 -43 12 -25 0z"/>
<path d="M6545 6217 c23 -16 55 -28 55 -22 0 6 -56 35 -67 35 -4 0 1 -6 12
-13z"/>
<path d="M6663 6147 c4 -10 7 -21 7 -23 0 -2 5 -4 12 -4 6 0 22 -10 35 -22 13
-12 23 -17 22 -12 0 5 -19 25 -42 44 -27 23 -38 29 -34 17z"/>
<path d="M6810 6027 c0 -2 39 -42 86 -88 47 -46 102 -106 122 -134 20 -27 37
-52 39 -54 2 -2 6 -2 9 1 16 17 -113 169 -197 234 -32 25 -59 43 -59 41z"/>
<path d="M8845 5971 c5 -59 10 -81 18 -70 2 2 -3 33 -10 69 l-12 65 4 -64z"/>
<path d="M3732 5915 c0 -16 2 -22 5 -12 2 9 2 23 0 30 -3 6 -5 -1 -5 -18z"/>
<path d="M7077 5743 c-4 -3 -7 -11 -7 -17 0 -6 5 -5 12 2 6 6 9 14 7 17 -3 3
-9 2 -12 -2z"/>
<path d="M7090 5707 c0 -8 7 -20 15 -27 12 -10 15 -10 15 3 0 8 -7 20 -15 27
-12 10 -15 10 -15 -3z"/>
<path d="M7130 5653 c0 -5 7 -18 15 -29 13 -18 14 -18 8 4 -5 22 -23 41 -23
25z"/>
<path d="M3156 5080 c3 -14 13 -37 20 -52 8 -15 14 -34 14 -43 0 -8 4 -15 10
-15 5 0 0 23 -11 52 -25 63 -43 95 -33 58z"/>
<path d="M2870 4981 c0 -5 6 -11 14 -14 7 -3 16 -24 20 -46 6 -36 89 -189 137
-249 42 -54 91 -103 96 -98 4 3 -3 16 -14 29 -34 37 -127 186 -177 284 -26 50
-54 94 -62 97 -8 3 -14 1 -14 -3z"/>
<path d="M7263 4534 c-22 -38 -65 -118 -96 -179 -31 -60 -72 -134 -92 -163
-36 -55 -42 -72 -26 -72 13 0 86 99 115 158 15 29 42 76 60 105 34 53 89 192
83 210 -1 5 -21 -21 -44 -59z"/>
<path d="M7011 4067 c-13 -21 -12 -21 5 -5 10 10 16 20 13 22 -3 3 -11 -5 -18
-17z"/>
</g>
</svg>
